<svg version="1.1" viewBox="0.0 0.0 960.0 720.0" fill="none" stroke="none" stroke-linecap="square" stroke-miterlimit="10" xmlns:xlink="http://www.w3.org/1999/xlink" xmlns="http://www.w3.org/2000/svg"><clipPath id="p.0"><path d="m0 0l960.0 0l0 720.0l-960.0 0l0 -720.0z" clip-rule="nonzero"/></clipPath><g clip-path="url(#p.0)"><path fill="#000000" fill-opacity="0.0" d="m0 0l960.0 0l0 720.0l-960.0 0z" fill-rule="evenodd"/><path fill="#6d9eeb" d="m256.89633 495.51663l0 0c0 -22.05661 17.196503 -39.93701 38.409454 -39.93701l0 0c10.186798 0 19.95639 4.2076416 27.159576 11.697266c7.2031555 7.4896545 11.249847 17.647797 11.249847 28.239746l0 0c0 22.05661 -17.196472 39.93698 -38.409424 39.93698l0 0c-21.212952 0 -38.409454 -17.880371 -38.409454 -39.93698z" fill-rule="evenodd"/><path stroke="#000000" stroke-width="12.0" stroke-linejoin="round" stroke-linecap="butt" d="m256.89633 495.51663l0 0c0 -22.05661 17.196503 -39.93701 38.409454 -39.93701l0 0c10.186798 0 19.95639 4.2076416 27.159576 11.697266c7.2031555 7.4896545 11.249847 17.647797 11.249847 28.239746l0 0c0 22.05661 -17.196472 39.93698 -38.409424 39.93698l0 0c-21.212952 0 -38.409454 -17.880371 -38.409454 -39.93698z" fill-rule="evenodd"/><path fill="#999999" d="m339.32153 415.63254l0 0c0 -22.05658 17.196472 -39.93701 38.409424 -39.93701l0 0c10.186829 0 19.95642 4.2076416 27.159607 11.697296c7.2031555 7.489624 11.249847 17.647766 11.249847 28.239716l0 0c0 22.05661 -17.196472 39.93701 -38.409454 39.93701l0 0c-21.212952 0 -38.409424 -17.880402 -38.409424 -39.93701z" fill-rule="evenodd"/><path stroke="#000000" stroke-width="12.0" stroke-linejoin="round" stroke-linecap="butt" d="m339.32153 415.63254l0 0c0 -22.05658 17.196472 -39.93701 38.409424 -39.93701l0 0c10.186829 0 19.95642 4.2076416 27.159607 11.697296c7.2031555 7.489624 11.249847 17.647766 11.249847 28.239716l0 0c0 22.05661 -17.196472 39.93701 -38.409454 39.93701l0 0c-21.212952 0 -38.409424 -17.880402 -38.409424 -39.93701z" fill-rule="evenodd"/><path fill="#999999" d="m410.5105 495.51663l0 0c0 -22.05661 17.196503 -39.93701 38.409454 -39.93701l0 0c10.186829 0 19.95642 4.2076416 27.159576 11.697266c7.2031555 7.4896545 11.249878 17.647797 11.249878 28.239746l0 0c0 22.05661 -17.196503 39.93698 -38.409454 39.93698l0 0c-21.212952 0 -38.409454 -17.880371 -38.409454 -39.93698z" fill-rule="evenodd"/><path stroke="#000000" stroke-width="12.0" stroke-linejoin="round" stroke-linecap="butt" d="m410.5105 495.51663l0 0c0 -22.05661 17.196503 -39.93701 38.409454 -39.93701l0 0c10.186829 0 19.95642 4.2076416 27.159576 11.697266c7.2031555 7.4896545 11.249878 17.647797 11.249878 28.239746l0 0c0 22.05661 -17.196503 39.93698 -38.409454 39.93698l0 0c-21.212952 0 -38.409454 -17.880371 -38.409454 -39.93698z" fill-rule="evenodd"/><path fill="#cc0000" d="m510.48032 415.63254l0 0c0 -22.05658 17.196503 -39.93701 38.409454 -39.93701l0 0c10.186829 0 19.95642 4.2076416 27.159546 11.697296c7.203186 7.489624 11.249878 17.647766 11.249878 28.239716l0 0c0 22.05661 -17.196472 39.93701 -38.409424 39.93701l0 0c-21.212952 0 -38.409454 -17.880402 -38.409454 -39.93701z" fill-rule="evenodd"/><path stroke="#000000" stroke-width="12.0" stroke-linejoin="round" stroke-linecap="butt" d="m510.48032 415.63254l0 0c0 -22.05658 17.196503 -39.93701 38.409454 -39.93701l0 0c10.186829 0 19.95642 4.2076416 27.159546 11.697296c7.203186 7.489624 11.249878 17.647766 11.249878 28.239716l0 0c0 22.05661 -17.196472 39.93701 -38.409424 39.93701l0 0c-21.212952 0 -38.409454 -17.880402 -38.409454 -39.93701z" fill-rule="evenodd"/><path fill="#cc0000" d="m410.5105 606.1264l0 0c0 -22.05658 17.196503 -39.93701 38.409454 -39.93701l0 0c10.186829 0 19.95642 4.2076416 27.159576 11.697327c7.2031555 7.489624 11.249878 17.647766 11.249878 28.239685l0 0c0 22.05664 -17.196503 39.93701 -38.409454 39.93701l0 0c-21.212952 0 -38.409454 -17.880371 -38.409454 -39.93701z" fill-rule="evenodd"/><path stroke="#000000" stroke-width="12.0" stroke-linejoin="round" stroke-linecap="butt" d="m410.5105 606.1264l0 0c0 -22.05658 17.196503 -39.93701 38.409454 -39.93701l0 0c10.186829 0 19.95642 4.2076416 27.159576 11.697327c7.2031555 7.489624 11.249878 17.647766 11.249878 28.239685l0 0c0 22.05664 -17.196503 39.93701 -38.409454 39.93701l0 0c-21.212952 0 -38.409454 -17.880371 -38.409454 -39.93701z" fill-rule="evenodd"/><path fill="#000000" fill-opacity="0.0" d="m322.46536 467.2769l28.094482 -23.40158" fill-rule="evenodd"/><path stroke="#000000" stroke-width="12.0" stroke-linejoin="round" stroke-linecap="butt" d="m322.46536 467.2769l28.094482 -23.40158" fill-rule="evenodd"/><path fill="#000000" fill-opacity="0.0" d="m404.89056 443.87228l16.881866 23.40158" fill-rule="evenodd"/><path stroke="#000000" stroke-width="12.0" stroke-linejoin="round" stroke-linecap="butt" d="m404.89056 443.87228l16.881866 23.40158" fill-rule="evenodd"/><path fill="#000000" fill-opacity="0.0" d="m448.91928 535.4663l0 30.70868" fill-rule="evenodd"/><path stroke="#000000" stroke-width="12.0" stroke-linejoin="round" stroke-linecap="butt" d="m448.91928 535.4663l0 30.70868" fill-rule="evenodd"/><path fill="#999999" d="m416.14172 297.90027l0 0c0 -22.05661 -17.196472 -39.93701 -38.409454 -39.93701l0 0c-10.186798 0 -19.95639 4.2076416 -27.159576 11.697266c-7.2031555 7.4896545 -11.249847 17.647797 -11.249847 28.239746l0 0c0 22.05658 17.196472 39.93701 38.409424 39.93701l0 0c21.212982 0 38.409454 -17.880432 38.409454 -39.93701z" fill-rule="evenodd"/><path stroke="#000000" stroke-width="12.0" stroke-linejoin="round" stroke-linecap="butt" d="m416.14172 297.90027l0 0c0 -22.05661 -17.196472 -39.93701 -38.409454 -39.93701l0 0c-10.186798 0 -19.95639 4.2076416 -27.159576 11.697266c-7.2031555 7.4896545 -11.249847 17.647797 -11.249847 28.239746l0 0c0 22.05658 17.196472 39.93701 38.409424 39.93701l0 0c21.212982 0 38.409454 -17.880432 38.409454 -39.93701z" fill-rule="evenodd"/><path fill="#000000" fill-opacity="0.0" d="m377.84122 341.50525l-0.2204895 30.519684" fill-rule="evenodd"/><path stroke="#000000" stroke-width="12.0" stroke-linejoin="round" stroke-linecap="butt" d="m377.84122 341.50525l-0.2204895 30.519684" fill-rule="evenodd"/><path fill="#999999" d="m487.3281 203.8819l0 0c0 -22.05661 -17.196503 -39.93701 -38.409454 -39.93701l0 0c-10.186829 0 -19.95642 4.2076263 -27.159576 11.697281c-7.203186 7.4896393 -11.249878 17.647766 -11.249878 28.23973l0 0c0 22.056595 17.196503 39.936996 38.409454 39.936996l0 0c21.212952 0 38.409454 -17.880402 38.409454 -39.936996z" fill-rule="evenodd"/><path stroke="#000000" stroke-width="12.0" stroke-linejoin="round" stroke-linecap="butt" d="m487.3281 203.8819l0 0c0 -22.05661 -17.196503 -39.93701 -38.409454 -39.93701l0 0c-10.186829 0 -19.95642 4.2076263 -27.159576 11.697281c-7.203186 7.4896393 -11.249878 17.647766 -11.249878 28.23973l0 0c0 22.056595 17.196503 39.936996 38.409454 39.936996l0 0c21.212952 0 38.409454 -17.880402 38.409454 -39.936996z" fill-rule="evenodd"/><path fill="#999999" d="m421.75336 57.776176l0 0c15.594452 -15.594437 40.39856 -16.07388 55.40158 -1.0708694l0 0c7.204712 7.2047005 11.139435 17.089195 10.938599 27.479004c-0.20080566 10.389809 -4.520752 20.43386 -12.00946 27.92257l0 0c-15.594452 15.594437 -40.39856 16.073875 -55.40158 1.0708694l0 0c-15.003021 -15.003014 -14.52356 -39.807144 1.0708618 -55.401573z" fill-rule="evenodd"/><path stroke="#000000" stroke-width="12.0" stroke-linejoin="round" stroke-linecap="butt" d="m421.75336 57.776176l0 0c15.594452 -15.594437 40.39856 -16.07388 55.40158 -1.0708694l0 0c7.204712 7.2047005 11.139435 17.089195 10.938599 27.479004c-0.20080566 10.389809 -4.520752 20.43386 -12.00946 27.92257l0 0c-15.594452 15.594437 -40.39856 16.073875 -55.40158 1.0708694l0 0c-15.003021 -15.003014 -14.52356 -39.807144 1.0708618 -55.401573z" fill-rule="evenodd"/><path fill="#000000" fill-opacity="0.0" d="m391.5748 257.96326l24.566925 -27.086609" fill-rule="evenodd"/><path stroke="#000000" stroke-width="12.0" stroke-linejoin="round" stroke-linecap="butt" d="m391.5748 257.96326l24.566925 -27.086609" fill-rule="evenodd"/><path fill="#000000" fill-opacity="0.0" d="m450.65488 121.99303l-0.3779602 41.95276" fill-rule="evenodd"/><path stroke="#000000" stroke-width="12.0" stroke-linejoin="round" stroke-linecap="butt" d="m450.65488 121.99303l-0.3779602 41.95276" fill-rule="evenodd"/><path fill="#cc0000" d="m510.48032 263.67584l0 0c0 22.05661 17.196503 39.93701 38.409454 39.93701l0 0c10.186829 0 19.95642 -4.2076416 27.159546 -11.697266c7.203186 -7.4896545 11.249878 -17.647797 11.249878 -28.239746l0 0c0 -22.056595 -17.196472 -39.93701 -38.409424 -39.93701l0 0c-21.212952 0 -38.409454 17.880417 -38.409454 39.93701z" fill-rule="evenodd"/><path stroke="#000000" stroke-width="12.0" stroke-linejoin="round" stroke-linecap="butt" d="m510.48032 263.67584l0 0c0 22.05661 17.196503 39.93701 38.409454 39.93701l0 0c10.186829 0 19.95642 -4.2076416 27.159546 -11.697266c7.203186 -7.4896545 11.249878 -17.647797 11.249878 -28.239746l0 0c0 -22.056595 -17.196472 -39.93701 -38.409424 -39.93701l0 0c-21.212952 0 -38.409454 17.880417 -38.409454 39.93701z" fill-rule="evenodd"/><path fill="#000000" fill-opacity="0.0" d="m487.3281 203.8819l38.86612 31.149597" fill-rule="evenodd"/><path stroke="#000000" stroke-width="12.0" stroke-linejoin="round" stroke-linecap="butt" d="m487.3281 203.8819l38.86612 31.149597" fill-rule="evenodd"/><path fill="#000000" fill-opacity="0.0" d="m487.31836 223.72704l26.960632 22.614166" fill-rule="evenodd"/><path stroke="#000000" stroke-width="12.0" stroke-linejoin="round" stroke-linecap="butt" d="m487.31836 223.72704l26.960632 22.614166" fill-rule="evenodd"/><path fill="#000000" fill-opacity="0.0" d="m513.5197 441.00525l-37.41736 26.26773" fill-rule="evenodd"/><path stroke="#000000" stroke-width="12.0" stroke-linejoin="round" stroke-linecap="butt" d="m513.5197 441.00525l-37.41736 26.26773" fill-rule="evenodd"/><path fill="#000000" fill-opacity="0.0" d="m529.5171 455.56955l-45.51184 30.64566" fill-rule="evenodd"/><path stroke="#000000" stroke-width="12.0" stroke-linejoin="round" stroke-linecap="butt" d="m529.5171 455.56955l-45.51184 30.64566" fill-rule="evenodd"/></g></svg>