<svg version="1.1" viewBox="0.0 0.0 960.0 720.0" fill="none" stroke="none" stroke-linecap="square" stroke-miterlimit="10" xmlns:xlink="http://www.w3.org/1999/xlink" xmlns="http://www.w3.org/2000/svg"><clipPath id="p.0"><path d="m0 0l960.0 0l0 720.0l-960.0 0l0 -720.0z" clip-rule="nonzero"/></clipPath><g clip-path="url(#p.0)"><path fill="#000000" fill-opacity="0.0" d="m0 0l960.0 0l0 720.0l-960.0 0z" fill-rule="evenodd"/><path fill="#6d9eeb" d="m172.75984 498.33813l0 0c0 -22.05658 17.196503 -39.93701 38.409454 -39.93701l0 0c10.186813 0 19.956406 4.2076416 27.159576 11.697296c7.203171 7.489624 11.249863 17.647766 11.249863 28.239716l0 0c0 22.05664 -17.196487 39.93701 -38.40944 39.93701l0 0c-21.212952 0 -38.409454 -17.880371 -38.409454 -39.93701z" fill-rule="evenodd"/><path stroke="#000000" stroke-width="12.0" stroke-linejoin="round" stroke-linecap="butt" d="m172.75984 498.33813l0 0c0 -22.05658 17.196503 -39.93701 38.409454 -39.93701l0 0c10.186813 0 19.956406 4.2076416 27.159576 11.697296c7.203171 7.489624 11.249863 17.647766 11.249863 28.239716l0 0c0 22.05664 -17.196487 39.93701 -38.40944 39.93701l0 0c-21.212952 0 -38.409454 -17.880371 -38.409454 -39.93701z" fill-rule="evenodd"/><path fill="#999999" d="m249.56693 418.45407l0 0c0 -22.05661 17.196503 -39.93701 38.409454 -39.93701l0 0c10.186829 0 19.95642 4.2076416 27.159576 11.697266c7.203186 7.4896545 11.249878 17.647797 11.249878 28.239746l0 0c0 22.05661 -17.196503 39.93701 -38.409454 39.93701l0 0c-21.212952 0 -38.409454 -17.880402 -38.409454 -39.93701z" fill-rule="evenodd"/><path stroke="#000000" stroke-width="12.0" stroke-linejoin="round" stroke-linecap="butt" d="m249.56693 418.45407l0 0c0 -22.05661 17.196503 -39.93701 38.409454 -39.93701l0 0c10.186829 0 19.95642 4.2076416 27.159576 11.697266c7.203186 7.4896545 11.249878 17.647797 11.249878 28.239746l0 0c0 22.05661 -17.196503 39.93701 -38.409454 39.93701l0 0c-21.212952 0 -38.409454 -17.880402 -38.409454 -39.93701z" fill-rule="evenodd"/><path fill="#999999" d="m326.37402 498.33813l0 0c0 -22.05658 17.196503 -39.93701 38.409454 -39.93701l0 0c10.186798 0 19.95639 4.2076416 27.159576 11.697296c7.2031555 7.489624 11.249847 17.647766 11.249847 28.239716l0 0c0 22.05664 -17.196472 39.93701 -38.409424 39.93701l0 0c-21.212952 0 -38.409454 -17.880371 -38.409454 -39.93701z" fill-rule="evenodd"/><path stroke="#000000" stroke-width="12.0" stroke-linejoin="round" stroke-linecap="butt" d="m326.37402 498.33813l0 0c0 -22.05658 17.196503 -39.93701 38.409454 -39.93701l0 0c10.186798 0 19.95639 4.2076416 27.159576 11.697296c7.2031555 7.489624 11.249847 17.647766 11.249847 28.239716l0 0c0 22.05664 -17.196472 39.93701 -38.409424 39.93701l0 0c-21.212952 0 -38.409454 -17.880371 -38.409454 -39.93701z" fill-rule="evenodd"/><path fill="#cc0000" d="m403.1811 418.45407l0 0c0 -22.05661 17.196503 -39.93701 38.409454 -39.93701l0 0c10.186829 0 19.95642 4.2076416 27.159576 11.697266c7.203186 7.4896545 11.249878 17.647797 11.249878 28.239746l0 0c0 22.05661 -17.196503 39.93701 -38.409454 39.93701l0 0c-21.212952 0 -38.409454 -17.880402 -38.409454 -39.93701z" fill-rule="evenodd"/><path stroke="#000000" stroke-width="12.0" stroke-linejoin="round" stroke-linecap="butt" d="m403.1811 418.45407l0 0c0 -22.05661 17.196503 -39.93701 38.409454 -39.93701l0 0c10.186829 0 19.95642 4.2076416 27.159576 11.697266c7.203186 7.4896545 11.249878 17.647797 11.249878 28.239746l0 0c0 22.05661 -17.196503 39.93701 -38.409454 39.93701l0 0c-21.212952 0 -38.409454 -17.880402 -38.409454 -39.93701z" fill-rule="evenodd"/><path fill="#cc0000" d="m326.37402 608.94794l0 0c0 -22.05658 17.196503 -39.93701 38.409454 -39.93701l0 0c10.186798 0 19.95639 4.2076416 27.159576 11.697266c7.2031555 7.489685 11.249847 17.647827 11.249847 28.239746l0 0c0 22.05658 -17.196472 39.93701 -38.409424 39.93701l0 0c-21.212952 0 -38.409454 -17.880432 -38.409454 -39.93701z" fill-rule="evenodd"/><path stroke="#000000" stroke-width="12.0" stroke-linejoin="round" stroke-linecap="butt" d="m326.37402 608.94794l0 0c0 -22.05658 17.196503 -39.93701 38.409454 -39.93701l0 0c10.186798 0 19.95639 4.2076416 27.159576 11.697266c7.2031555 7.489685 11.249847 17.647827 11.249847 28.239746l0 0c0 22.05658 -17.196472 39.93701 -38.409424 39.93701l0 0c-21.212952 0 -38.409454 -17.880432 -38.409454 -39.93701z" fill-rule="evenodd"/><path fill="#000000" fill-opacity="0.0" d="m238.32887 470.09842l22.488174 -23.40158" fill-rule="evenodd"/><path stroke="#000000" stroke-width="12.0" stroke-linejoin="round" stroke-linecap="butt" d="m238.32887 470.09842l22.488174 -23.40158" fill-rule="evenodd"/><path fill="#000000" fill-opacity="0.0" d="m315.13596 446.6938l22.48819 23.40158" fill-rule="evenodd"/><path stroke="#000000" stroke-width="12.0" stroke-linejoin="round" stroke-linecap="butt" d="m315.13596 446.6938l22.48819 23.40158" fill-rule="evenodd"/><path fill="#000000" fill-opacity="0.0" d="m391.94043 469.7047l26.960632 -22.614166" fill-rule="evenodd"/><path stroke="#000000" stroke-width="12.0" stroke-linejoin="round" stroke-linecap="butt" d="m391.94043 469.7047l26.960632 -22.614166" fill-rule="evenodd"/><path fill="#000000" fill-opacity="0.0" d="m364.7828 538.28784l0 30.70868" fill-rule="evenodd"/><path stroke="#000000" stroke-width="12.0" stroke-linejoin="round" stroke-linecap="butt" d="m364.7828 538.28784l0 30.70868" fill-rule="evenodd"/><path fill="#999999" d="m249.56693 307.8084l0 0c0 -22.05661 17.196503 -39.93701 38.409454 -39.93701l0 0c10.186829 0 19.95642 4.2076416 27.159576 11.697266c7.203186 7.4896545 11.249878 17.647766 11.249878 28.239746l0 0c0 22.05658 -17.196503 39.93698 -38.409454 39.93698l0 0c-21.212952 0 -38.409454 -17.880402 -38.409454 -39.93698z" fill-rule="evenodd"/><path stroke="#000000" stroke-width="12.0" stroke-linejoin="round" stroke-linecap="butt" d="m249.56693 307.8084l0 0c0 -22.05661 17.196503 -39.93701 38.409454 -39.93701l0 0c10.186829 0 19.95642 4.2076416 27.159576 11.697266c7.203186 7.4896545 11.249878 17.647766 11.249878 28.239746l0 0c0 22.05658 -17.196503 39.93698 -38.409454 39.93698l0 0c-21.212952 0 -38.409454 -17.880402 -38.409454 -39.93698z" fill-rule="evenodd"/><path fill="#000000" fill-opacity="0.0" d="m287.97702 347.74454l0 30.708649" fill-rule="evenodd"/><path stroke="#000000" stroke-width="12.0" stroke-linejoin="round" stroke-linecap="butt" d="m287.97702 347.74454l0 30.708649" fill-rule="evenodd"/><path fill="#000000" fill-opacity="0.0" d="m380.01917 458.4029l26.960632 -22.614197" fill-rule="evenodd"/><path stroke="#000000" stroke-width="12.0" stroke-linejoin="round" stroke-linecap="butt" d="m380.01917 458.4029l26.960632 -22.614197" fill-rule="evenodd"/><path fill="#f1c232" d="m315.13647 208.43307l0 0c0 -32.841385 27.010986 -59.46457 60.33072 -59.46457l0 0c16.000702 0 31.346039 6.2649994 42.660248 17.416763c11.314209 11.151779 17.670471 26.276825 17.670471 42.047806l0 0c0 32.84137 -27.010986 59.46457 -60.33072 59.46457l0 0c-33.319733 0 -60.33072 -26.6232 -60.33072 -59.46457z" fill-rule="evenodd"/><path stroke="#000000" stroke-width="12.0" stroke-linejoin="round" stroke-linecap="butt" d="m315.13647 208.43307l0 0c0 -32.841385 27.010986 -59.46457 60.33072 -59.46457l0 0c16.000702 0 31.346039 6.2649994 42.660248 17.416763c11.314209 11.151779 17.670471 26.276825 17.670471 42.047806l0 0c0 32.84137 -27.010986 59.46457 -60.33072 59.46457l0 0c-33.319733 0 -60.33072 -26.6232 -60.33072 -59.46457z" fill-rule="evenodd"/><path fill="#000000" fill-opacity="0.0" d="m315.13464 275.0223l22.48819 -23.40158" fill-rule="evenodd"/><path stroke="#000000" stroke-width="12.0" stroke-linejoin="round" stroke-linecap="butt" d="m315.13464 275.0223l22.48819 -23.40158" fill-rule="evenodd"/></g></svg>