<svg version="1.1" viewBox="0.0 0.0 960.0 720.0" fill="none" stroke="none" stroke-linecap="square" stroke-miterlimit="10" xmlns:xlink="http://www.w3.org/1999/xlink" xmlns="http://www.w3.org/2000/svg"><clipPath id="p.0"><path d="m0 0l960.0 0l0 720.0l-960.0 0l0 -720.0z" clip-rule="nonzero"/></clipPath><g clip-path="url(#p.0)"><path fill="#000000" fill-opacity="0.0" d="m0 0l960.0 0l0 720.0l-960.0 0z" fill-rule="evenodd"/><path fill="#6d9eeb" d="m326.37927 499.7712l0 0c0 -22.05658 17.196503 -39.93701 38.409454 -39.93701l0 0c10.186798 0 19.95639 4.2076416 27.159576 11.697296c7.2031555 7.489624 11.249847 17.647766 11.249847 28.239716l0 0c0 22.05661 -17.196472 39.937042 -38.409424 39.937042l0 0c-21.212952 0 -38.409454 -17.880432 -38.409454 -39.937042z" fill-rule="evenodd"/><path stroke="#000000" stroke-width="12.0" stroke-linejoin="round" stroke-linecap="butt" d="m326.37927 499.7712l0 0c0 -22.05658 17.196503 -39.93701 38.409454 -39.93701l0 0c10.186798 0 19.95639 4.2076416 27.159576 11.697296c7.2031555 7.489624 11.249847 17.647766 11.249847 28.239716l0 0c0 22.05661 -17.196472 39.937042 -38.409424 39.937042l0 0c-21.212952 0 -38.409454 -17.880432 -38.409454 -39.937042z" fill-rule="evenodd"/><path fill="#999999" d="m403.18634 419.88715l0 0c0 -22.05661 17.196503 -39.93701 38.409454 -39.93701l0 0c10.186829 0 19.95642 4.2076416 27.159576 11.697266c7.203186 7.4896545 11.249878 17.647797 11.249878 28.239746l0 0c0 22.05658 -17.196503 39.93701 -38.409454 39.93701l0 0c-21.212952 0 -38.409454 -17.880432 -38.409454 -39.93701z" fill-rule="evenodd"/><path stroke="#000000" stroke-width="12.0" stroke-linejoin="round" stroke-linecap="butt" d="m403.18634 419.88715l0 0c0 -22.05661 17.196503 -39.93701 38.409454 -39.93701l0 0c10.186829 0 19.95642 4.2076416 27.159576 11.697266c7.203186 7.4896545 11.249878 17.647797 11.249878 28.239746l0 0c0 22.05658 -17.196503 39.93701 -38.409454 39.93701l0 0c-21.212952 0 -38.409454 -17.880432 -38.409454 -39.93701z" fill-rule="evenodd"/><path fill="#999999" d="m479.99344 499.7712l0 0c0 -22.05658 17.196503 -39.93701 38.409454 -39.93701l0 0c10.186829 0 19.95642 4.2076416 27.159546 11.697296c7.203186 7.489624 11.249878 17.647766 11.249878 28.239716l0 0c0 22.05661 -17.196472 39.937042 -38.409424 39.937042l0 0c-21.212952 0 -38.409454 -17.880432 -38.409454 -39.937042z" fill-rule="evenodd"/><path stroke="#000000" stroke-width="12.0" stroke-linejoin="round" stroke-linecap="butt" d="m479.99344 499.7712l0 0c0 -22.05658 17.196503 -39.93701 38.409454 -39.93701l0 0c10.186829 0 19.95642 4.2076416 27.159546 11.697296c7.203186 7.489624 11.249878 17.647766 11.249878 28.239716l0 0c0 22.05661 -17.196472 39.937042 -38.409424 39.937042l0 0c-21.212952 0 -38.409454 -17.880432 -38.409454 -39.937042z" fill-rule="evenodd"/><path fill="#cc0000" d="m556.80054 419.88715l0 0c0 -22.05661 17.196472 -39.93701 38.409424 -39.93701l0 0c10.186829 0 19.95642 4.2076416 27.159607 11.697266c7.203186 7.4896545 11.249878 17.647797 11.249878 28.239746l0 0c0 22.05658 -17.196533 39.93701 -38.409485 39.93701l0 0c-21.212952 0 -38.409424 -17.880432 -38.409424 -39.93701z" fill-rule="evenodd"/><path stroke="#000000" stroke-width="12.0" stroke-linejoin="round" stroke-linecap="butt" d="m556.80054 419.88715l0 0c0 -22.05661 17.196472 -39.93701 38.409424 -39.93701l0 0c10.186829 0 19.95642 4.2076416 27.159607 11.697266c7.203186 7.4896545 11.249878 17.647797 11.249878 28.239746l0 0c0 22.05658 -17.196533 39.93701 -38.409485 39.93701l0 0c-21.212952 0 -38.409424 -17.880432 -38.409424 -39.93701z" fill-rule="evenodd"/><path fill="#cc0000" d="m479.99344 610.38104l0 0c0 -22.05664 17.196503 -39.93701 38.409454 -39.93701l0 0c10.186829 0 19.95642 4.2076416 27.159546 11.697266c7.203186 7.489624 11.249878 17.647766 11.249878 28.239746l0 0c0 22.05658 -17.196472 39.93695 -38.409424 39.93695l0 0c-21.212952 0 -38.409454 -17.880371 -38.409454 -39.93695z" fill-rule="evenodd"/><path stroke="#000000" stroke-width="12.0" stroke-linejoin="round" stroke-linecap="butt" d="m479.99344 610.38104l0 0c0 -22.05664 17.196503 -39.93701 38.409454 -39.93701l0 0c10.186829 0 19.95642 4.2076416 27.159546 11.697266c7.203186 7.489624 11.249878 17.647766 11.249878 28.239746l0 0c0 22.05658 -17.196472 39.93695 -38.409424 39.93695l0 0c-21.212952 0 -38.409454 -17.880371 -38.409454 -39.93695z" fill-rule="evenodd"/><path fill="#000000" fill-opacity="0.0" d="m391.9483 471.5315l22.48819 -23.40158" fill-rule="evenodd"/><path stroke="#000000" stroke-width="12.0" stroke-linejoin="round" stroke-linecap="butt" d="m391.9483 471.5315l22.48819 -23.40158" fill-rule="evenodd"/><path fill="#000000" fill-opacity="0.0" d="m468.75537 448.12686l22.48819 23.40158" fill-rule="evenodd"/><path stroke="#000000" stroke-width="12.0" stroke-linejoin="round" stroke-linecap="butt" d="m468.75537 448.12686l22.48819 23.40158" fill-rule="evenodd"/><path fill="#000000" fill-opacity="0.0" d="m545.5598 471.1378l26.960632 -22.614166" fill-rule="evenodd"/><path stroke="#000000" stroke-width="12.0" stroke-linejoin="round" stroke-linecap="butt" d="m545.5598 471.1378l26.960632 -22.614166" fill-rule="evenodd"/><path fill="#000000" fill-opacity="0.0" d="m518.4022 539.7209l0 30.70868" fill-rule="evenodd"/><path stroke="#000000" stroke-width="12.0" stroke-linejoin="round" stroke-linecap="butt" d="m518.4022 539.7209l0 30.70868" fill-rule="evenodd"/><path fill="#999999" d="m403.18634 309.24146l0 0c0 -22.05658 17.196503 -39.93698 38.409454 -39.93698l0 0c10.186829 0 19.95642 4.207611 27.159576 11.697266c7.203186 7.4896545 11.249878 17.647766 11.249878 28.239716l0 0c0 22.05661 -17.196503 39.93701 -38.409454 39.93701l0 0c-21.212952 0 -38.409454 -17.880402 -38.409454 -39.93701z" fill-rule="evenodd"/><path stroke="#000000" stroke-width="12.0" stroke-linejoin="round" stroke-linecap="butt" d="m403.18634 309.24146l0 0c0 -22.05658 17.196503 -39.93698 38.409454 -39.93698l0 0c10.186829 0 19.95642 4.207611 27.159576 11.697266c7.203186 7.4896545 11.249878 17.647766 11.249878 28.239716l0 0c0 22.05661 -17.196503 39.93701 -38.409454 39.93701l0 0c-21.212952 0 -38.409454 -17.880402 -38.409454 -39.93701z" fill-rule="evenodd"/><path fill="#000000" fill-opacity="0.0" d="m441.59647 349.1776l0 30.708649" fill-rule="evenodd"/><path stroke="#000000" stroke-width="12.0" stroke-linejoin="round" stroke-linecap="butt" d="m441.59647 349.1776l0 30.708649" fill-rule="evenodd"/><path fill="#000000" fill-opacity="0.0" d="m533.6386 459.83594l26.960632 -22.614166" fill-rule="evenodd"/><path stroke="#000000" stroke-width="12.0" stroke-linejoin="round" stroke-linecap="butt" d="m533.6386 459.83594l26.960632 -22.614166" fill-rule="evenodd"/><path fill="#999999" d="m479.99213 222.28609l0 0c0 -22.056595 17.196503 -39.93701 38.409424 -39.93701l0 0c10.186829 0 19.95642 4.2076416 27.159607 11.697281c7.203186 7.4896393 11.249878 17.647781 11.249878 28.23973l0 0c0 22.05661 -17.196533 39.936996 -38.409485 39.936996l0 0c-21.212921 0 -38.409424 -17.880386 -38.409424 -39.936996z" fill-rule="evenodd"/><path stroke="#000000" stroke-width="12.0" stroke-linejoin="round" stroke-linecap="butt" d="m479.99213 222.28609l0 0c0 -22.056595 17.196503 -39.93701 38.409424 -39.93701l0 0c10.186829 0 19.95642 4.2076416 27.159607 11.697281c7.203186 7.4896393 11.249878 17.647781 11.249878 28.23973l0 0c0 22.05661 -17.196533 39.936996 -38.409485 39.936996l0 0c-21.212921 0 -38.409424 -17.880386 -38.409424 -39.936996z" fill-rule="evenodd"/><path fill="#999999" d="m335.37796 222.28609l0 0c0 -22.056595 17.196503 -39.93701 38.409454 -39.93701l0 0c10.186798 0 19.95639 4.2076416 27.159576 11.697281c7.2031555 7.4896393 11.249847 17.647781 11.249847 28.23973l0 0c0 22.05661 -17.196472 39.936996 -38.409424 39.936996l0 0c-21.212952 0 -38.409454 -17.880386 -38.409454 -39.936996z" fill-rule="evenodd"/><path stroke="#000000" stroke-width="12.0" stroke-linejoin="round" stroke-linecap="butt" d="m335.37796 222.28609l0 0c0 -22.056595 17.196503 -39.93701 38.409454 -39.93701l0 0c10.186798 0 19.95639 4.2076416 27.159576 11.697281c7.2031555 7.4896393 11.249847 17.647781 11.249847 28.23973l0 0c0 22.05661 -17.196472 39.936996 -38.409424 39.936996l0 0c-21.212952 0 -38.409454 -17.880386 -38.409454 -39.936996z" fill-rule="evenodd"/><path fill="#000000" fill-opacity="0.0" d="m468.75406 276.45538l22.48819 -23.40158" fill-rule="evenodd"/><path stroke="#000000" stroke-width="12.0" stroke-linejoin="round" stroke-linecap="butt" d="m468.75406 276.45538l22.48819 -23.40158" fill-rule="evenodd"/><path fill="#000000" fill-opacity="0.0" d="m391.947 253.05338l22.48819 23.40158" fill-rule="evenodd"/><path stroke="#000000" stroke-width="12.0" stroke-linejoin="round" stroke-linecap="butt" d="m391.947 253.05338l22.48819 23.40158" fill-rule="evenodd"/><path fill="#999999" d="m479.99213 109.61942l0 0c0 -22.056602 17.196503 -39.93701 38.409424 -39.93701l0 0c10.186829 0 19.95642 4.2076416 27.159607 11.697281c7.203186 7.489647 11.249878 17.647774 11.249878 28.23973l0 0c0 22.056602 -17.196533 39.937004 -38.409485 39.937004l0 0c-21.212921 0 -38.409424 -17.880402 -38.409424 -39.937004z" fill-rule="evenodd"/><path stroke="#000000" stroke-width="12.0" stroke-linejoin="round" stroke-linecap="butt" d="m479.99213 109.61942l0 0c0 -22.056602 17.196503 -39.93701 38.409424 -39.93701l0 0c10.186829 0 19.95642 4.2076416 27.159607 11.697281c7.203186 7.489647 11.249878 17.647774 11.249878 28.23973l0 0c0 22.056602 -17.196533 39.937004 -38.409485 39.937004l0 0c-21.212921 0 -38.409424 -17.880402 -38.409424 -39.937004z" fill-rule="evenodd"/><path fill="#000000" fill-opacity="0.0" d="m518.4022 149.55556l0 30.708664" fill-rule="evenodd"/><path stroke="#000000" stroke-width="12.0" stroke-linejoin="round" stroke-linecap="butt" d="m518.4022 149.55556l0 30.708664" fill-rule="evenodd"/></g></svg>