<svg version="1.1" viewBox="0.0 0.0 960.0 720.0" fill="none" stroke="none" stroke-linecap="square" stroke-miterlimit="10" xmlns:xlink="http://www.w3.org/1999/xlink" xmlns="http://www.w3.org/2000/svg"><clipPath id="p.0"><path d="m0 0l960.0 0l0 720.0l-960.0 0l0 -720.0z" clip-rule="nonzero"/></clipPath><g clip-path="url(#p.0)"><path fill="#000000" fill-opacity="0.0" d="m0 0l960.0 0l0 720.0l-960.0 0z" fill-rule="evenodd"/><path fill="#6d9eeb" d="m439.063 509.2489l0 0c0 -22.05661 17.196503 -39.93701 38.409454 -39.93701l0 0c10.186829 0 19.95642 4.2076416 27.159576 11.697296c7.203186 7.489624 11.249878 17.647766 11.249878 28.239716l0 0c0 22.05658 -17.196503 39.93701 -38.409454 39.93701l0 0c-21.212952 0 -38.409454 -17.880432 -38.409454 -39.93701z" fill-rule="evenodd"/><path stroke="#000000" stroke-width="12.0" stroke-linejoin="round" stroke-linecap="butt" d="m439.063 509.2489l0 0c0 -22.05661 17.196503 -39.93701 38.409454 -39.93701l0 0c10.186829 0 19.95642 4.2076416 27.159576 11.697296c7.203186 7.489624 11.249878 17.647766 11.249878 28.239716l0 0c0 22.05658 -17.196503 39.93701 -38.409454 39.93701l0 0c-21.212952 0 -38.409454 -17.880432 -38.409454 -39.93701z" fill-rule="evenodd"/><path fill="#999999" d="m515.87006 429.36484l0 0c0 -22.05661 17.196533 -39.93701 38.409485 -39.93701l0 0c10.186829 0 19.95642 4.2076416 27.159546 11.697266c7.203186 7.4896545 11.249878 17.647797 11.249878 28.239746l0 0c0 22.05658 -17.196472 39.93701 -38.409424 39.93701l0 0c-21.212952 0 -38.409485 -17.880432 -38.409485 -39.93701z" fill-rule="evenodd"/><path stroke="#000000" stroke-width="12.0" stroke-linejoin="round" stroke-linecap="butt" d="m515.87006 429.36484l0 0c0 -22.05661 17.196533 -39.93701 38.409485 -39.93701l0 0c10.186829 0 19.95642 4.2076416 27.159546 11.697266c7.203186 7.4896545 11.249878 17.647797 11.249878 28.239746l0 0c0 22.05658 -17.196472 39.93701 -38.409424 39.93701l0 0c-21.212952 0 -38.409485 -17.880432 -38.409485 -39.93701z" fill-rule="evenodd"/><path fill="#999999" d="m592.6772 509.2489l0 0c0 -22.05661 17.196472 -39.93701 38.409424 -39.93701l0 0c10.186829 0 19.95642 4.2076416 27.159607 11.697296c7.203125 7.489624 11.249817 17.647766 11.249817 28.239716l0 0c0 22.05658 -17.196472 39.93701 -38.409424 39.93701l0 0c-21.212952 0 -38.409424 -17.880432 -38.409424 -39.93701z" fill-rule="evenodd"/><path stroke="#000000" stroke-width="12.0" stroke-linejoin="round" stroke-linecap="butt" d="m592.6772 509.2489l0 0c0 -22.05661 17.196472 -39.93701 38.409424 -39.93701l0 0c10.186829 0 19.95642 4.2076416 27.159607 11.697296c7.203125 7.489624 11.249817 17.647766 11.249817 28.239716l0 0c0 22.05658 -17.196472 39.93701 -38.409424 39.93701l0 0c-21.212952 0 -38.409424 -17.880432 -38.409424 -39.93701z" fill-rule="evenodd"/><path fill="#cc0000" d="m669.48425 429.36484l0 0c0 -22.05661 17.196472 -39.93701 38.409424 -39.93701l0 0c10.186829 0 19.95642 4.2076416 27.159607 11.697266c7.203186 7.4896545 11.249878 17.647797 11.249878 28.239746l0 0c0 22.05658 -17.196533 39.93701 -38.409485 39.93701l0 0c-21.212952 0 -38.409424 -17.880432 -38.409424 -39.93701z" fill-rule="evenodd"/><path stroke="#000000" stroke-width="12.0" stroke-linejoin="round" stroke-linecap="butt" d="m669.48425 429.36484l0 0c0 -22.05661 17.196472 -39.93701 38.409424 -39.93701l0 0c10.186829 0 19.95642 4.2076416 27.159607 11.697266c7.203186 7.4896545 11.249878 17.647797 11.249878 28.239746l0 0c0 22.05658 -17.196533 39.93701 -38.409485 39.93701l0 0c-21.212952 0 -38.409424 -17.880432 -38.409424 -39.93701z" fill-rule="evenodd"/><path fill="#cc0000" d="m592.6772 619.8587l0 0c0 -22.05658 17.196472 -39.93701 38.409424 -39.93701l0 0c10.186829 0 19.95642 4.2076416 27.159607 11.697266c7.203125 7.489685 11.249817 17.647766 11.249817 28.239746l0 0c0 22.05658 -17.196472 39.93701 -38.409424 39.93701l0 0c-21.212952 0 -38.409424 -17.880432 -38.409424 -39.93701z" fill-rule="evenodd"/><path stroke="#000000" stroke-width="12.0" stroke-linejoin="round" stroke-linecap="butt" d="m592.6772 619.8587l0 0c0 -22.05658 17.196472 -39.93701 38.409424 -39.93701l0 0c10.186829 0 19.95642 4.2076416 27.159607 11.697266c7.203125 7.489685 11.249817 17.647766 11.249817 28.239746l0 0c0 22.05658 -17.196472 39.93701 -38.409424 39.93701l0 0c-21.212952 0 -38.409424 -17.880432 -38.409424 -39.93701z" fill-rule="evenodd"/><path fill="#000000" fill-opacity="0.0" d="m504.63202 481.0092l22.48822 -23.40158" fill-rule="evenodd"/><path stroke="#000000" stroke-width="12.0" stroke-linejoin="round" stroke-linecap="butt" d="m504.63202 481.0092l22.48822 -23.40158" fill-rule="evenodd"/><path fill="#000000" fill-opacity="0.0" d="m581.4391 457.60455l22.48822 23.40158" fill-rule="evenodd"/><path stroke="#000000" stroke-width="12.0" stroke-linejoin="round" stroke-linecap="butt" d="m581.4391 457.60455l22.48822 23.40158" fill-rule="evenodd"/><path fill="#000000" fill-opacity="0.0" d="m658.2436 480.61548l26.960632 -22.614166" fill-rule="evenodd"/><path stroke="#000000" stroke-width="12.0" stroke-linejoin="round" stroke-linecap="butt" d="m658.2436 480.61548l26.960632 -22.614166" fill-rule="evenodd"/><path fill="#000000" fill-opacity="0.0" d="m631.08594 549.1986l0 30.70868" fill-rule="evenodd"/><path stroke="#000000" stroke-width="12.0" stroke-linejoin="round" stroke-linecap="butt" d="m631.08594 549.1986l0 30.70868" fill-rule="evenodd"/><path fill="#999999" d="m515.87006 318.71915l0 0c0 -22.05658 17.196533 -39.93698 38.409485 -39.93698l0 0c10.186829 0 19.95642 4.207611 27.159546 11.697266c7.203186 7.4896545 11.249878 17.647766 11.249878 28.239716l0 0c0 22.05661 -17.196472 39.93701 -38.409424 39.93701l0 0c-21.212952 0 -38.409485 -17.880402 -38.409485 -39.93701z" fill-rule="evenodd"/><path stroke="#000000" stroke-width="12.0" stroke-linejoin="round" stroke-linecap="butt" d="m515.87006 318.71915l0 0c0 -22.05658 17.196533 -39.93698 38.409485 -39.93698l0 0c10.186829 0 19.95642 4.207611 27.159546 11.697266c7.203186 7.4896545 11.249878 17.647766 11.249878 28.239716l0 0c0 22.05661 -17.196472 39.93701 -38.409424 39.93701l0 0c-21.212952 0 -38.409485 -17.880402 -38.409485 -39.93701z" fill-rule="evenodd"/><path fill="#000000" fill-opacity="0.0" d="m554.2802 358.6553l0 30.708649" fill-rule="evenodd"/><path stroke="#000000" stroke-width="12.0" stroke-linejoin="round" stroke-linecap="butt" d="m554.2802 358.6553l0 30.708649" fill-rule="evenodd"/><path fill="#000000" fill-opacity="0.0" d="m646.3223 469.31363l26.960632 -22.614166" fill-rule="evenodd"/><path stroke="#000000" stroke-width="12.0" stroke-linejoin="round" stroke-linecap="butt" d="m646.3223 469.31363l26.960632 -22.614166" fill-rule="evenodd"/><path fill="#999999" d="m592.67584 231.76378l0 0c0 -22.056595 17.196533 -39.93701 38.409485 -39.93701l0 0c10.186768 0 19.95636 4.2076416 27.159546 11.697281c7.203186 7.4896393 11.249878 17.647781 11.249878 28.23973l0 0c0 22.056595 -17.196472 39.936996 -38.409424 39.936996l0 0c-21.212952 0 -38.409485 -17.880402 -38.409485 -39.936996z" fill-rule="evenodd"/><path stroke="#000000" stroke-width="12.0" stroke-linejoin="round" stroke-linecap="butt" d="m592.67584 231.76378l0 0c0 -22.056595 17.196533 -39.93701 38.409485 -39.93701l0 0c10.186768 0 19.95636 4.2076416 27.159546 11.697281c7.203186 7.4896393 11.249878 17.647781 11.249878 28.23973l0 0c0 22.056595 -17.196472 39.936996 -38.409424 39.936996l0 0c-21.212952 0 -38.409485 -17.880402 -38.409485 -39.936996z" fill-rule="evenodd"/><path fill="#999999" d="m441.58923 231.76378l0 0c0 -22.056595 17.196503 -39.93701 38.409454 -39.93701l0 0c10.186829 0 19.95642 4.2076416 27.159576 11.697281c7.203186 7.4896393 11.249878 17.647781 11.249878 28.23973l0 0c0 22.056595 -17.196503 39.936996 -38.409454 39.936996l0 0c-21.212952 0 -38.409454 -17.880402 -38.409454 -39.936996z" fill-rule="evenodd"/><path stroke="#000000" stroke-width="12.0" stroke-linejoin="round" stroke-linecap="butt" d="m441.58923 231.76378l0 0c0 -22.056595 17.196503 -39.93701 38.409454 -39.93701l0 0c10.186829 0 19.95642 4.2076416 27.159576 11.697281c7.203186 7.4896393 11.249878 17.647781 11.249878 28.23973l0 0c0 22.056595 -17.196503 39.936996 -38.409454 39.936996l0 0c-21.212952 0 -38.409454 -17.880402 -38.409454 -39.936996z" fill-rule="evenodd"/><path fill="#000000" fill-opacity="0.0" d="m581.4378 285.93307l22.48816 -23.40158" fill-rule="evenodd"/><path stroke="#000000" stroke-width="12.0" stroke-linejoin="round" stroke-linecap="butt" d="m581.4378 285.93307l22.48816 -23.40158" fill-rule="evenodd"/><path fill="#000000" fill-opacity="0.0" d="m504.63333 262.53107l22.48819 23.40158" fill-rule="evenodd"/><path stroke="#000000" stroke-width="12.0" stroke-linejoin="round" stroke-linecap="butt" d="m504.63333 262.53107l22.48819 23.40158" fill-rule="evenodd"/></g></svg>