<svg version="1.1" viewBox="0.0 0.0 960.0 720.0" fill="none" stroke="none" stroke-linecap="square" stroke-miterlimit="10" xmlns:xlink="http://www.w3.org/1999/xlink" xmlns="http://www.w3.org/2000/svg"><clipPath id="p.0"><path d="m0 0l960.0 0l0 720.0l-960.0 0l0 -720.0z" clip-rule="nonzero"/></clipPath><g clip-path="url(#p.0)"><path fill="#000000" fill-opacity="0.0" d="m0 0l960.0 0l0 720.0l-960.0 0z" fill-rule="evenodd"/><path fill="#6d9eeb" d="m259.25986 287.2279l0 0c0 -22.05661 17.196472 -39.936996 38.409424 -39.936996l0 0c10.186829 0 19.95642 4.2076263 27.159607 11.697281c7.2031555 7.489624 11.249847 17.647766 11.249847 28.239716l0 0c0 22.05661 -17.196503 39.93701 -38.409454 39.93701l0 0c-21.212952 0 -38.409424 -17.880402 -38.409424 -39.93701z" fill-rule="evenodd"/><path stroke="#000000" stroke-width="12.0" stroke-linejoin="round" stroke-linecap="butt" d="m259.25986 287.2279l0 0c0 -22.05661 17.196472 -39.936996 38.409424 -39.936996l0 0c10.186829 0 19.95642 4.2076263 27.159607 11.697281c7.2031555 7.489624 11.249847 17.647766 11.249847 28.239716l0 0c0 22.05661 -17.196503 39.93701 -38.409454 39.93701l0 0c-21.212952 0 -38.409424 -17.880402 -38.409424 -39.93701z" fill-rule="evenodd"/><path fill="#999999" d="m336.06693 207.34383l0 0c0 -22.056595 17.196503 -39.936996 38.409454 -39.936996l0 0c10.186829 0 19.95642 4.2076263 27.159576 11.697266c7.203186 7.4896545 11.249878 17.647781 11.249878 28.23973l0 0c0 22.05661 -17.196503 39.93701 -38.409454 39.93701l0 0c-21.212952 0 -38.409454 -17.880402 -38.409454 -39.93701z" fill-rule="evenodd"/><path stroke="#000000" stroke-width="12.0" stroke-linejoin="round" stroke-linecap="butt" d="m336.06693 207.34383l0 0c0 -22.056595 17.196503 -39.936996 38.409454 -39.936996l0 0c10.186829 0 19.95642 4.2076263 27.159576 11.697266c7.203186 7.4896545 11.249878 17.647781 11.249878 28.23973l0 0c0 22.05661 -17.196503 39.93701 -38.409454 39.93701l0 0c-21.212952 0 -38.409454 -17.880402 -38.409454 -39.93701z" fill-rule="evenodd"/><path fill="#999999" d="m412.87402 287.2279l0 0c0 -22.05661 17.196503 -39.936996 38.409454 -39.936996l0 0c10.186798 0 19.95639 4.2076263 27.159576 11.697281c7.2031555 7.489624 11.249847 17.647766 11.249847 28.239716l0 0c0 22.05661 -17.196472 39.93701 -38.409424 39.93701l0 0c-21.212952 0 -38.409454 -17.880402 -38.409454 -39.93701z" fill-rule="evenodd"/><path stroke="#000000" stroke-width="12.0" stroke-linejoin="round" stroke-linecap="butt" d="m412.87402 287.2279l0 0c0 -22.05661 17.196503 -39.936996 38.409454 -39.936996l0 0c10.186798 0 19.95639 4.2076263 27.159576 11.697281c7.2031555 7.489624 11.249847 17.647766 11.249847 28.239716l0 0c0 22.05661 -17.196472 39.93701 -38.409424 39.93701l0 0c-21.212952 0 -38.409454 -17.880402 -38.409454 -39.93701z" fill-rule="evenodd"/><path fill="#cc0000" d="m489.6811 207.34383l0 0c0 -22.056595 17.196503 -39.936996 38.409485 -39.936996l0 0c10.186768 0 19.95636 4.2076263 27.159546 11.697266c7.203186 7.4896545 11.249878 17.647781 11.249878 28.23973l0 0c0 22.05661 -17.196472 39.93701 -38.409424 39.93701l0 0c-21.212982 0 -38.409485 -17.880402 -38.409485 -39.93701z" fill-rule="evenodd"/><path stroke="#000000" stroke-width="12.0" stroke-linejoin="round" stroke-linecap="butt" d="m489.6811 207.34383l0 0c0 -22.056595 17.196503 -39.936996 38.409485 -39.936996l0 0c10.186768 0 19.95636 4.2076263 27.159546 11.697266c7.203186 7.4896545 11.249878 17.647781 11.249878 28.23973l0 0c0 22.05661 -17.196472 39.93701 -38.409424 39.93701l0 0c-21.212982 0 -38.409485 -17.880402 -38.409485 -39.93701z" fill-rule="evenodd"/><path fill="#cc0000" d="m412.87402 397.8377l0 0c0 -22.05661 17.196503 -39.93701 38.409454 -39.93701l0 0c10.186798 0 19.95639 4.2076416 27.159576 11.697296c7.2031555 7.489624 11.249847 17.647766 11.249847 28.239716l0 0c0 22.05661 -17.196472 39.93701 -38.409424 39.93701l0 0c-21.212952 0 -38.409454 -17.880402 -38.409454 -39.93701z" fill-rule="evenodd"/><path stroke="#000000" stroke-width="12.0" stroke-linejoin="round" stroke-linecap="butt" d="m412.87402 397.8377l0 0c0 -22.05661 17.196503 -39.93701 38.409454 -39.93701l0 0c10.186798 0 19.95639 4.2076416 27.159576 11.697296c7.2031555 7.489624 11.249847 17.647766 11.249847 28.239716l0 0c0 22.05661 -17.196472 39.93701 -38.409424 39.93701l0 0c-21.212952 0 -38.409454 -17.880402 -38.409454 -39.93701z" fill-rule="evenodd"/><path fill="#000000" fill-opacity="0.0" d="m324.8289 258.9882l22.48816 -23.40158" fill-rule="evenodd"/><path stroke="#000000" stroke-width="12.0" stroke-linejoin="round" stroke-linecap="butt" d="m324.8289 258.9882l22.48816 -23.40158" fill-rule="evenodd"/><path fill="#000000" fill-opacity="0.0" d="m401.63596 235.58356l22.48819 23.40158" fill-rule="evenodd"/><path stroke="#000000" stroke-width="12.0" stroke-linejoin="round" stroke-linecap="butt" d="m401.63596 235.58356l22.48819 23.40158" fill-rule="evenodd"/><path fill="#000000" fill-opacity="0.0" d="m478.44043 258.59448l26.960632 -22.614182" fill-rule="evenodd"/><path stroke="#000000" stroke-width="12.0" stroke-linejoin="round" stroke-linecap="butt" d="m478.44043 258.59448l26.960632 -22.614182" fill-rule="evenodd"/><path fill="#000000" fill-opacity="0.0" d="m451.2828 327.1776l0 30.708649" fill-rule="evenodd"/><path stroke="#000000" stroke-width="12.0" stroke-linejoin="round" stroke-linecap="butt" d="m451.2828 327.1776l0 30.708649" fill-rule="evenodd"/><path fill="#999999" d="m336.06693 96.698166l0 0c0 -22.056602 17.196503 -39.93701 38.409454 -39.93701l0 0c10.186829 0 19.95642 4.207638 27.159576 11.697281c7.203186 7.4896393 11.249878 17.647774 11.249878 28.23973l0 0c0 22.056595 -17.196503 39.93701 -38.409454 39.93701l0 0c-21.212952 0 -38.409454 -17.880417 -38.409454 -39.93701z" fill-rule="evenodd"/><path stroke="#000000" stroke-width="12.0" stroke-linejoin="round" stroke-linecap="butt" d="m336.06693 96.698166l0 0c0 -22.056602 17.196503 -39.93701 38.409454 -39.93701l0 0c10.186829 0 19.95642 4.207638 27.159576 11.697281c7.203186 7.4896393 11.249878 17.647774 11.249878 28.23973l0 0c0 22.056595 -17.196503 39.93701 -38.409454 39.93701l0 0c-21.212952 0 -38.409454 -17.880417 -38.409454 -39.93701z" fill-rule="evenodd"/><path fill="#000000" fill-opacity="0.0" d="m374.47702 136.6343l0 30.708664" fill-rule="evenodd"/><path stroke="#000000" stroke-width="12.0" stroke-linejoin="round" stroke-linecap="butt" d="m374.47702 136.6343l0 30.708664" fill-rule="evenodd"/><path fill="#000000" fill-opacity="0.0" d="m466.51917 247.29265l26.960632 -22.614182" fill-rule="evenodd"/><path stroke="#000000" stroke-width="12.0" stroke-linejoin="round" stroke-linecap="butt" d="m466.51917 247.29265l26.960632 -22.614182" fill-rule="evenodd"/></g></svg>