<svg version="1.1" viewBox="0.0 0.0 960.0 720.0" fill="none" stroke="none" stroke-linecap="square" stroke-miterlimit="10" xmlns:xlink="http://www.w3.org/1999/xlink" xmlns="http://www.w3.org/2000/svg"><clipPath id="p.0"><path d="m0 0l960.0 0l0 720.0l-960.0 0l0 -720.0z" clip-rule="nonzero"/></clipPath><g clip-path="url(#p.0)"><path fill="#000000" fill-opacity="0.0" d="m0 0l960.0 0l0 720.0l-960.0 0z" fill-rule="evenodd"/><path fill="#6d9eeb" d="m276.4567 520.1938l0 0c0 -22.05661 17.196503 -39.93701 38.409454 -39.93701l0 0c10.186798 0 19.95639 4.2076416 27.159576 11.697296c7.2031555 7.489624 11.249878 17.647766 11.249878 28.239716l0 0c0 22.05658 -17.196503 39.93701 -38.409454 39.93701l0 0c-21.212952 0 -38.409454 -17.880432 -38.409454 -39.93701z" fill-rule="evenodd"/><path stroke="#000000" stroke-width="12.0" stroke-linejoin="round" stroke-linecap="butt" d="m276.4567 520.1938l0 0c0 -22.05661 17.196503 -39.93701 38.409454 -39.93701l0 0c10.186798 0 19.95639 4.2076416 27.159576 11.697296c7.2031555 7.489624 11.249878 17.647766 11.249878 28.239716l0 0c0 22.05658 -17.196503 39.93701 -38.409454 39.93701l0 0c-21.212952 0 -38.409454 -17.880432 -38.409454 -39.93701z" fill-rule="evenodd"/><path fill="#999999" d="m353.2638 440.30972l0 0c0 -22.05661 17.196472 -39.93701 38.409424 -39.93701l0 0c10.186829 0 19.95642 4.2076416 27.159607 11.697266c7.2031555 7.4896545 11.249847 17.647797 11.249847 28.239746l0 0c0 22.05658 -17.196503 39.93698 -38.409454 39.93698l0 0c-21.212952 0 -38.409424 -17.880402 -38.409424 -39.93698z" fill-rule="evenodd"/><path stroke="#000000" stroke-width="12.0" stroke-linejoin="round" stroke-linecap="butt" d="m353.2638 440.30972l0 0c0 -22.05661 17.196472 -39.93701 38.409424 -39.93701l0 0c10.186829 0 19.95642 4.2076416 27.159607 11.697266c7.2031555 7.4896545 11.249847 17.647797 11.249847 28.239746l0 0c0 22.05658 -17.196503 39.93698 -38.409454 39.93698l0 0c-21.212952 0 -38.409424 -17.880402 -38.409424 -39.93698z" fill-rule="evenodd"/><path fill="#999999" d="m430.07086 520.1938l0 0c0 -22.05661 17.196503 -39.93701 38.409454 -39.93701l0 0c10.186829 0 19.95642 4.2076416 27.159576 11.697296c7.203186 7.489624 11.249878 17.647766 11.249878 28.239716l0 0c0 22.05658 -17.196503 39.93701 -38.409454 39.93701l0 0c-21.212952 0 -38.409454 -17.880432 -38.409454 -39.93701z" fill-rule="evenodd"/><path stroke="#000000" stroke-width="12.0" stroke-linejoin="round" stroke-linecap="butt" d="m430.07086 520.1938l0 0c0 -22.05661 17.196503 -39.93701 38.409454 -39.93701l0 0c10.186829 0 19.95642 4.2076416 27.159576 11.697296c7.203186 7.489624 11.249878 17.647766 11.249878 28.239716l0 0c0 22.05658 -17.196503 39.93701 -38.409454 39.93701l0 0c-21.212952 0 -38.409454 -17.880432 -38.409454 -39.93701z" fill-rule="evenodd"/><path fill="#cc0000" d="m506.87796 440.30972l0 0c0 -22.05661 17.196503 -39.93701 38.409454 -39.93701l0 0c10.186829 0 19.95642 4.2076416 27.159546 11.697266c7.203186 7.4896545 11.249878 17.647797 11.249878 28.239746l0 0c0 22.05658 -17.196472 39.93698 -38.409424 39.93698l0 0c-21.212952 0 -38.409454 -17.880402 -38.409454 -39.93698z" fill-rule="evenodd"/><path stroke="#000000" stroke-width="12.0" stroke-linejoin="round" stroke-linecap="butt" d="m506.87796 440.30972l0 0c0 -22.05661 17.196503 -39.93701 38.409454 -39.93701l0 0c10.186829 0 19.95642 4.2076416 27.159546 11.697266c7.203186 7.4896545 11.249878 17.647797 11.249878 28.239746l0 0c0 22.05658 -17.196472 39.93698 -38.409424 39.93698l0 0c-21.212952 0 -38.409454 -17.880402 -38.409454 -39.93698z" fill-rule="evenodd"/><path fill="#cc0000" d="m430.07086 630.8036l0 0c0 -22.05658 17.196503 -39.93701 38.409454 -39.93701l0 0c10.186829 0 19.95642 4.2076416 27.159576 11.697266c7.203186 7.489685 11.249878 17.647766 11.249878 28.239746l0 0c0 22.05658 -17.196503 39.93701 -38.409454 39.93701l0 0c-21.212952 0 -38.409454 -17.880432 -38.409454 -39.93701z" fill-rule="evenodd"/><path stroke="#000000" stroke-width="12.0" stroke-linejoin="round" stroke-linecap="butt" d="m430.07086 630.8036l0 0c0 -22.05658 17.196503 -39.93701 38.409454 -39.93701l0 0c10.186829 0 19.95642 4.2076416 27.159576 11.697266c7.203186 7.489685 11.249878 17.647766 11.249878 28.239746l0 0c0 22.05658 -17.196503 39.93701 -38.409454 39.93701l0 0c-21.212952 0 -38.409454 -17.880432 -38.409454 -39.93701z" fill-rule="evenodd"/><path fill="#000000" fill-opacity="0.0" d="m342.02573 491.95407l22.48819 -23.40158" fill-rule="evenodd"/><path stroke="#000000" stroke-width="12.0" stroke-linejoin="round" stroke-linecap="butt" d="m342.02573 491.95407l22.48819 -23.40158" fill-rule="evenodd"/><path fill="#000000" fill-opacity="0.0" d="m418.83282 468.54944l22.48816 23.40158" fill-rule="evenodd"/><path stroke="#000000" stroke-width="12.0" stroke-linejoin="round" stroke-linecap="butt" d="m418.83282 468.54944l22.48816 23.40158" fill-rule="evenodd"/><path fill="#000000" fill-opacity="0.0" d="m495.63727 491.56036l26.960632 -22.614166" fill-rule="evenodd"/><path stroke="#000000" stroke-width="12.0" stroke-linejoin="round" stroke-linecap="butt" d="m495.63727 491.56036l26.960632 -22.614166" fill-rule="evenodd"/><path fill="#000000" fill-opacity="0.0" d="m468.47964 560.1435l0 30.70868" fill-rule="evenodd"/><path stroke="#000000" stroke-width="12.0" stroke-linejoin="round" stroke-linecap="butt" d="m468.47964 560.1435l0 30.70868" fill-rule="evenodd"/><path fill="#999999" d="m353.2638 329.66403l0 0c0 -22.05658 17.196472 -39.93701 38.409424 -39.93701l0 0c10.186829 0 19.95642 4.2076416 27.159607 11.697296c7.2031555 7.489624 11.249847 17.647766 11.249847 28.239716l0 0c0 22.05661 -17.196503 39.93701 -38.409454 39.93701l0 0c-21.212952 0 -38.409424 -17.880402 -38.409424 -39.93701z" fill-rule="evenodd"/><path stroke="#000000" stroke-width="12.0" stroke-linejoin="round" stroke-linecap="butt" d="m353.2638 329.66403l0 0c0 -22.05658 17.196472 -39.93701 38.409424 -39.93701l0 0c10.186829 0 19.95642 4.2076416 27.159607 11.697296c7.2031555 7.489624 11.249847 17.647766 11.249847 28.239716l0 0c0 22.05661 -17.196503 39.93701 -38.409454 39.93701l0 0c-21.212952 0 -38.409424 -17.880402 -38.409424 -39.93701z" fill-rule="evenodd"/><path fill="#000000" fill-opacity="0.0" d="m391.6739 369.6002l0 30.708649" fill-rule="evenodd"/><path stroke="#000000" stroke-width="12.0" stroke-linejoin="round" stroke-linecap="butt" d="m391.6739 369.6002l0 30.708649" fill-rule="evenodd"/><path fill="#000000" fill-opacity="0.0" d="m483.716 480.2585l26.960632 -22.614166" fill-rule="evenodd"/><path stroke="#000000" stroke-width="12.0" stroke-linejoin="round" stroke-linecap="butt" d="m483.716 480.2585l26.960632 -22.614166" fill-rule="evenodd"/><path fill="#999999" d="m430.06955 242.70866l0 0c0 -22.05661 17.196503 -39.93701 38.409454 -39.93701l0 0c10.186829 0 19.95642 4.2076416 27.159576 11.697281c7.203186 7.4896393 11.249878 17.647781 11.249878 28.23973l0 0c0 22.056595 -17.196503 39.936996 -38.409454 39.936996l0 0c-21.212952 0 -38.409454 -17.880402 -38.409454 -39.936996z" fill-rule="evenodd"/><path stroke="#000000" stroke-width="12.0" stroke-linejoin="round" stroke-linecap="butt" d="m430.06955 242.70866l0 0c0 -22.05661 17.196503 -39.93701 38.409454 -39.93701l0 0c10.186829 0 19.95642 4.2076416 27.159576 11.697281c7.203186 7.4896393 11.249878 17.647781 11.249878 28.23973l0 0c0 22.056595 -17.196503 39.936996 -38.409454 39.936996l0 0c-21.212952 0 -38.409454 -17.880402 -38.409454 -39.936996z" fill-rule="evenodd"/><path fill="#999999" d="m506.87796 329.66403l0 0c0 -22.05658 17.196503 -39.93701 38.409454 -39.93701l0 0c10.186829 0 19.95642 4.2076416 27.159546 11.697296c7.203186 7.489624 11.249878 17.647766 11.249878 28.239716l0 0c0 22.05661 -17.196472 39.93701 -38.409424 39.93701l0 0c-21.212952 0 -38.409454 -17.880402 -38.409454 -39.93701z" fill-rule="evenodd"/><path stroke="#000000" stroke-width="12.0" stroke-linejoin="round" stroke-linecap="butt" d="m506.87796 329.66403l0 0c0 -22.05658 17.196503 -39.93701 38.409454 -39.93701l0 0c10.186829 0 19.95642 4.2076416 27.159546 11.697296c7.203186 7.489624 11.249878 17.647766 11.249878 28.239716l0 0c0 22.05661 -17.196472 39.93701 -38.409424 39.93701l0 0c-21.212952 0 -38.409454 -17.880402 -38.409454 -39.93701z" fill-rule="evenodd"/><path fill="#000000" fill-opacity="0.0" d="m418.8315 296.87793l22.48816 -23.40155" fill-rule="evenodd"/><path stroke="#000000" stroke-width="12.0" stroke-linejoin="round" stroke-linecap="butt" d="m418.8315 296.87793l22.48816 -23.40155" fill-rule="evenodd"/><path fill="#000000" fill-opacity="0.0" d="m497.87482 273.47595l22.48816 23.40158" fill-rule="evenodd"/><path stroke="#000000" stroke-width="12.0" stroke-linejoin="round" stroke-linecap="butt" d="m497.87482 273.47595l22.48816 23.40158" fill-rule="evenodd"/><path fill="#999999" d="m430.06955 130.04199l0 0c0 -22.056595 17.196503 -39.937004 38.409454 -39.937004l0 0c10.186829 0 19.95642 4.207634 27.159576 11.697281c7.203186 7.4896393 11.249878 17.647774 11.249878 28.239723l0 0c0 22.05661 -17.196503 39.93701 -38.409454 39.93701l0 0c-21.212952 0 -38.409454 -17.880402 -38.409454 -39.93701z" fill-rule="evenodd"/><path stroke="#000000" stroke-width="12.0" stroke-linejoin="round" stroke-linecap="butt" d="m430.06955 130.04199l0 0c0 -22.056595 17.196503 -39.937004 38.409454 -39.937004l0 0c10.186829 0 19.95642 4.207634 27.159576 11.697281c7.203186 7.4896393 11.249878 17.647774 11.249878 28.239723l0 0c0 22.05661 -17.196503 39.93701 -38.409454 39.93701l0 0c-21.212952 0 -38.409454 -17.880402 -38.409454 -39.93701z" fill-rule="evenodd"/><path fill="#000000" fill-opacity="0.0" d="m468.47964 169.97813l0 30.708649" fill-rule="evenodd"/><path stroke="#000000" stroke-width="12.0" stroke-linejoin="round" stroke-linecap="butt" d="m468.47964 169.97813l0 30.708649" fill-rule="evenodd"/></g></svg>